<?xml version="1.0" standalone="no"?><!DOCTYPE svg PUBLIC "-//W3C//DTD SVG 1.1//EN" "http://www.w3.org/Graphics/SVG/1.1/DTD/svg11.dtd"><svg t="1498809267987" class="icon" style="" viewBox="0 0 1024 1024" version="1.1" xmlns="http://www.w3.org/2000/svg" p-id="2344" xmlns:xlink="http://www.w3.org/1999/xlink" width="128" height="128"><defs><style type="text/css"></style></defs><path d="M735.9104 126.2336c-114.3552 0-208.64 85.7472-222.3232 196.5056l-3.1744 0c-13.696-110.7584-107.968-196.5056-222.3232-196.5056-123.776 0-224.1152 100.4416-224.1152 224.3328 0 21.888 3.1488 43.0336 8.9856 63.0272 49.8944 216.8832 438.7072 492.0576 440.64 493.44l0.0128 0.0256 0.0128 0c0.576-0.4224 451.4176-319.104 445.8752-541.2224 0.3328-5.0432 0.5248-10.1376 0.5248-15.2576C960.0256 226.6624 859.6864 126.2336 735.9104 126.2336zM189.6192 358.464c-6.7712 35.7376-13.4656 90.7648-29.4272 87.7696-15.9744-2.9952-39.7312-49.8048-29.44-117.0304 5.504-35.9552 32.512-84.352 58.8672-73.152C219.7504 268.8768 196.3904 322.7392 189.6192 358.464z" fill="#d81e06" p-id="2345"></path></svg>